<svg width="23" height="17" fill="none" xmlns="http://www.w3.org/2000/svg"><path fill-rule="evenodd" clip-rule="evenodd" d="M7.187 8.804a4 4 0 108 0 4 4 0 00-8 0zm6 0a2 2 0 11-4 0 2 2 0 014 0z" fill="#9564AA"/><path fill-rule="evenodd" clip-rule="evenodd" d="M11.187.804c2.728 0 5.336 1.43 7.766 3.781.83.802 1.58 1.658 2.24 2.515.399.517.682.923.836 1.165l.345.54-.345.538c-.154.242-.437.649-.836 1.166-.66.856-1.41 1.712-2.24 2.514-2.43 2.35-5.038 3.781-7.766 3.781-2.728 0-5.336-1.43-7.766-3.781a23.303 23.303 0 01-2.24-2.514 17.493 17.493 0 01-.836-1.166L0 8.804l.345-.539C.5 8.023.782 7.617 1.18 7.1c.66-.857 1.41-1.713 2.24-2.515 2.43-2.35 5.038-3.78 7.766-3.78zm8.422 7.517a21.334 21.334 0 00-2.046-2.298c-2.093-2.024-4.27-3.219-6.376-3.219-2.105 0-4.282 1.195-6.376 3.219a21.326 21.326 0 00-2.408 2.781 21.32 21.32 0 002.408 2.781c2.094 2.025 4.271 3.22 6.376 3.22 2.105 0 4.283-1.195 6.376-3.22a21.327 21.327 0 002.408-2.78c-.11-.153-.231-.315-.362-.484z" fill="#9564AA"/></svg>